<svg xmlns="http://www.w3.org/2000/svg" width="361" height="312" viewBox="0 0 361 312" version="1.1"><path d="M 45 5.132 C 27.686 8.025, 13.116 21.781, 8.067 40 C 6.047 47.291, 6 49.539, 6 139.158 C 6 199.476, 6.370 233.518, 7.082 238.636 C 9.387 255.210, 15.467 268.650, 25.848 280.121 C 47.751 304.325, 83.474 311.197, 113.750 297.030 C 117.188 295.421, 120 293.610, 120 293.005 C 120 291.811, 115.009 287.083, 113.695 287.032 C 113.252 287.014, 110.195 284.255, 106.902 280.900 C 100.505 274.383, 97.881 273.523, 91.685 275.914 C 85.204 278.414, 67.779 276.457, 59.544 272.303 C 48.415 266.689, 39.583 255.996, 35.884 243.659 C 33.758 236.565, 33.738 235.646, 33.666 142 L 33.593 47.500 36.042 42.614 C 37.389 39.926, 40.031 36.553, 41.914 35.116 C 44.802 32.914, 46.367 32.505, 51.919 32.503 C 57.608 32.500, 59.002 32.884, 62.200 35.330 C 64.234 36.887, 66.934 40.262, 68.200 42.830 C 70.412 47.321, 70.504 48.502, 70.613 73.590 C 70.737 102.484, 71.237 107.971, 74.184 112.774 C 78.277 119.445, 72.524 119.086, 174.027 119.021 L 266 118.962 266 154.805 C 266 194.209, 265.287 201.673, 259.910 218.564 C 257.165 227.188, 249.733 240.963, 244.416 247.282 C 241.620 250.604, 241.406 252.263, 243.500 254.357 C 244.325 255.182, 245 256.240, 245 256.708 C 245 257.176, 245.900 258.207, 247 259 C 248.100 259.793, 249 260.987, 249 261.653 C 249 262.320, 249.900 263.151, 251 263.500 C 252.100 263.849, 253 264.486, 253 264.916 C 253 265.345, 254.865 266.537, 257.145 267.565 L 261.290 269.435 265.031 265.091 C 270.482 258.762, 280.639 241.487, 283.948 232.917 C 285.523 228.838, 288.058 220.325, 289.581 214 L 292.349 202.500 292.740 157.598 C 293.037 123.478, 292.829 111.673, 291.873 108.434 C 290.023 102.169, 285.995 96.769, 281.480 94.500 C 277.601 92.551, 275.228 92.493, 187.750 92.234 L 98 91.969 98 69.714 C 98 50.613, 97.720 46.448, 96.022 40.320 C 89.359 16.278, 67.698 1.339, 45 5.132 M 141.143 6.483 C 138.747 7.236, 135.704 8.869, 134.382 10.111 C 127.991 16.114, 129.993 26.897, 138.181 30.573 C 142.313 32.428, 145.149 32.488, 213.987 32.176 L 285.500 31.852 293.768 35.020 C 309.440 41.026, 319.645 51.437, 324.038 65.900 C 326.002 72.366, 326.048 74.746, 325.778 157.020 L 325.500 241.500 323.188 247.225 C 313.871 270.289, 289.836 281.741, 264.980 274.959 C 256.286 272.587, 251.783 270.649, 250.015 268.518 C 249.322 267.683, 248.135 267, 247.378 267 C 246.620 267, 246 266.500, 246 265.889 C 246 265.278, 244.294 262.690, 242.209 260.139 C 234.385 250.566, 232.756 244.426, 231.959 221.500 C 231.566 210.182, 230.640 199.468, 229.669 195 C 228.772 190.875, 227.659 185.700, 227.194 183.500 C 226.114 178.383, 224.882 176.124, 218.299 167.202 C 211.721 158.286, 201.097 150.821, 192.221 148.877 C 180.648 146.343, 165.171 148.038, 158.492 152.570 C 156.662 153.812, 153.559 155.590, 151.597 156.521 C 146.587 158.898, 136.720 169.784, 133.604 176.373 C 129.378 185.305, 128 195.219, 128 216.701 C 128 227.261, 127.519 238.145, 126.931 240.887 C 125.513 247.499, 127.022 250.079, 137.327 258.658 C 139.241 260.251, 147.116 264.218, 147.534 263.799 C 147.721 263.612, 148.793 261.316, 149.915 258.698 C 153.370 250.637, 155.201 236.151, 155.509 214.424 C 155.767 196.246, 156.005 193.859, 158.023 189.167 C 163.421 176.619, 177.761 171.416, 190.541 177.367 C 200.281 181.903, 203.999 188.808, 204.002 202.372 C 204.005 210.328, 204.438 217.566, 206.500 244.122 C 207.258 253.881, 213.286 268.063, 219.500 274.708 C 221.150 276.473, 224.075 279.715, 226 281.912 C 227.925 284.110, 230.032 285.929, 230.683 285.954 C 231.333 285.979, 232.125 286.787, 232.442 287.750 C 233.064 289.636, 242.682 295.686, 250.028 298.812 C 261.619 303.744, 278.059 305.680, 290.190 303.542 C 321.674 297.993, 343.932 277.504, 351.612 247 C 353.389 239.940, 353.500 234.509, 353.500 154.500 L 353.500 69.500 351.104 61 C 344.772 38.536, 330.201 21.313, 309.642 11.992 C 295.953 5.785, 293.743 5.628, 216 5.358 C 158.590 5.159, 144.691 5.368, 141.143 6.483 M 81.500 149.699 C 78.094 150.559, 72.851 155.112, 71.500 158.382 C 70.242 161.425, 70.225 175.020, 71.454 195.137 C 72.075 205.305, 77.014 225.564, 81.317 235.594 C 85.379 245.059, 93.372 258.207, 99.801 266 C 105.751 273.212, 114.223 282, 115.225 282 C 115.661 282, 117.395 283.316, 119.078 284.924 C 123.685 289.327, 143.247 298.565, 154.117 301.470 C 166.437 304.763, 179.511 305.953, 191.387 304.862 C 205.677 303.548, 227.175 296.869, 227.839 293.538 C 228.043 292.513, 225.457 288.942, 221.339 284.564 C 217.578 280.564, 213.782 276.237, 212.905 274.947 L 211.310 272.602 203.405 274.949 C 191.166 278.584, 176.217 278.858, 164 275.673 C 158.775 274.310, 152.475 272.274, 150 271.148 C 145.018 268.881, 137.777 264.838, 137 263.890 C 136.725 263.554, 135.080 262.552, 133.345 261.663 C 129.759 259.826, 121.019 249.708, 114.458 239.799 C 102.707 222.050, 97.723 202.062, 98.112 174.256 C 98.308 160.238, 98.153 158.681, 96.309 156.207 C 92.827 151.535, 86.040 148.553, 81.500 149.699" stroke="none" fill="#1f92b7" fill-rule="evenodd"/><path d="M 226.750 32.745 C 231.837 32.927, 240.162 32.927, 245.250 32.745 C 250.338 32.564, 246.175 32.415, 236 32.415 C 225.825 32.415, 221.662 32.564, 226.750 32.745 M 39.405 37.250 L 37.500 39.500 39.750 37.595 C 41.864 35.805, 42.455 35, 41.655 35 C 41.465 35, 40.453 36.013, 39.405 37.250 M 312 46.500 C 313.292 47.875, 314.574 49, 314.849 49 C 315.124 49, 314.292 47.875, 313 46.500 C 311.708 45.125, 310.426 44, 310.151 44 C 309.876 44, 310.708 45.125, 312 46.500 M 353.195 75.500 C 353.215 77.150, 353.439 77.704, 353.693 76.731 C 353.947 75.758, 353.930 74.408, 353.656 73.731 C 353.382 73.054, 353.175 73.850, 353.195 75.500 M 70.370 84 C 70.370 89.775, 70.535 92.138, 70.737 89.250 C 70.939 86.362, 70.939 81.638, 70.737 78.750 C 70.535 75.862, 70.370 78.225, 70.370 84 M 98.355 83.500 C 98.352 88.450, 98.521 90.601, 98.731 88.280 C 98.940 85.959, 98.943 81.909, 98.736 79.280 C 98.530 76.651, 98.358 78.550, 98.355 83.500 M 210.269 91.693 C 211.242 91.947, 212.592 91.930, 213.269 91.656 C 213.946 91.382, 213.150 91.175, 211.500 91.195 C 209.850 91.215, 209.296 91.439, 210.269 91.693 M 267.250 91.689 C 268.212 91.941, 269.788 91.941, 270.750 91.689 C 271.712 91.438, 270.925 91.232, 269 91.232 C 267.075 91.232, 266.288 91.438, 267.250 91.689 M 100.797 119.745 C 105.361 119.930, 112.561 119.929, 116.797 119.742 C 121.034 119.555, 117.300 119.404, 108.500 119.405 C 99.700 119.406, 96.234 119.559, 100.797 119.745 M 164.750 119.737 C 167.637 119.939, 172.363 119.939, 175.250 119.737 C 178.137 119.535, 175.775 119.370, 170 119.370 C 164.225 119.370, 161.863 119.535, 164.750 119.737 M 199.750 119.662 C 200.438 119.940, 201.563 119.940, 202.250 119.662 C 202.938 119.385, 202.375 119.158, 201 119.158 C 199.625 119.158, 199.063 119.385, 199.750 119.662 M 242.797 119.745 C 247.361 119.930, 254.561 119.929, 258.797 119.742 C 263.034 119.555, 259.300 119.404, 250.500 119.405 C 241.700 119.406, 238.234 119.559, 242.797 119.745 M 33.423 181.500 C 33.424 193.050, 33.570 197.638, 33.747 191.696 C 33.924 185.753, 33.923 176.303, 33.745 170.696 C 33.567 165.088, 33.422 169.950, 33.423 181.500 M 70.252 170.500 C 70.263 172.700, 70.468 173.482, 70.707 172.238 C 70.946 170.994, 70.937 169.194, 70.687 168.238 C 70.437 167.282, 70.241 168.300, 70.252 170.500 M 70.272 179 C 70.272 181.475, 70.467 182.488, 70.706 181.250 C 70.944 180.012, 70.944 177.988, 70.706 176.750 C 70.467 175.512, 70.272 176.525, 70.272 179 M 98.252 189.500 C 98.263 191.700, 98.468 192.482, 98.707 191.238 C 98.946 189.994, 98.937 188.194, 98.687 187.238 C 98.437 186.282, 98.241 187.300, 98.252 189.500 M 265.232 190 C 265.232 191.925, 265.438 192.713, 265.689 191.750 C 265.941 190.787, 265.941 189.213, 265.689 188.250 C 265.438 187.287, 265.232 188.075, 265.232 190 M 230.232 198 C 230.232 199.925, 230.438 200.713, 230.689 199.750 C 230.941 198.787, 230.941 197.213, 230.689 196.250 C 230.438 195.287, 230.232 196.075, 230.232 198 M 155.286 206.500 C 155.294 209.250, 155.488 210.256, 155.718 208.736 C 155.947 207.216, 155.941 204.966, 155.704 203.736 C 155.467 202.506, 155.279 203.750, 155.286 206.500 M 204.286 221.500 C 204.294 224.250, 204.488 225.256, 204.718 223.736 C 204.947 222.216, 204.941 219.966, 204.704 218.736 C 204.467 217.506, 204.279 218.750, 204.286 221.500 M 353.232 235 C 353.232 236.925, 353.438 237.713, 353.689 236.750 C 353.941 235.787, 353.941 234.213, 353.689 233.250 C 353.438 232.287, 353.232 233.075, 353.232 235 M 153.158 246 C 153.158 247.375, 153.385 247.938, 153.662 247.250 C 153.940 246.563, 153.940 245.438, 153.662 244.750 C 153.385 244.063, 153.158 244.625, 153.158 246 M 47 263.500 C 48.292 264.875, 49.574 266, 49.849 266 C 50.124 266, 49.292 264.875, 48 263.500 C 46.708 262.125, 45.426 261, 45.151 261 C 44.876 261, 45.708 262.125, 47 263.500 M 311.924 263.750 L 309.500 266.500 312.250 264.076 C 314.820 261.810, 315.459 261, 314.674 261 C 314.495 261, 313.258 262.238, 311.924 263.750 M 74.750 304.662 C 75.438 304.940, 76.563 304.940, 77.250 304.662 C 77.938 304.385, 77.375 304.158, 76 304.158 C 74.625 304.158, 74.063 304.385, 74.750 304.662 M 272.750 304.662 C 273.438 304.940, 274.563 304.940, 275.250 304.662 C 275.938 304.385, 275.375 304.158, 274 304.158 C 272.625 304.158, 272.063 304.385, 272.750 304.662 M 175.250 305.689 C 176.213 305.941, 177.787 305.941, 178.750 305.689 C 179.713 305.438, 178.925 305.232, 177 305.232 C 175.075 305.232, 174.287 305.438, 175.250 305.689 M 185.250 305.689 C 186.213 305.941, 187.787 305.941, 188.750 305.689 C 189.713 305.438, 188.925 305.232, 187 305.232 C 185.075 305.232, 184.287 305.438, 185.250 305.689" stroke="none" fill="#64b3ce" fill-rule="evenodd"/><path d="" stroke="none" fill="#1c94b4" fill-rule="evenodd"/></svg>